<svg width="831" height="24" viewBox="0 0 831 24" fill="none" xmlns="http://www.w3.org/2000/svg">
<path d="M761.586 7.14062L758.188 17H756.133L760.414 5.625H761.727L761.586 7.14062ZM764.43 17L761.023 7.14062L760.875 5.625H762.195L766.492 17H764.43ZM764.266 12.7812V14.3359H758.078V12.7812H764.266ZM769.305 10.3516V17H767.422V8.54688H769.195L769.305 10.3516ZM768.969 12.4609L768.359 12.4531C768.365 11.8542 768.448 11.3047 768.609 10.8047C768.776 10.3047 769.005 9.875 769.297 9.51562C769.594 9.15625 769.948 8.88021 770.359 8.6875C770.771 8.48958 771.229 8.39062 771.734 8.39062C772.141 8.39062 772.508 8.44792 772.836 8.5625C773.169 8.67188 773.453 8.85156 773.688 9.10156C773.927 9.35156 774.109 9.67708 774.234 10.0781C774.359 10.474 774.422 10.9609 774.422 11.5391V17H772.531V11.5312C772.531 11.125 772.471 10.8047 772.352 10.5703C772.237 10.3307 772.068 10.1615 771.844 10.0625C771.625 9.95833 771.352 9.90625 771.023 9.90625C770.701 9.90625 770.411 9.97396 770.156 10.1094C769.901 10.2448 769.685 10.4297 769.508 10.6641C769.336 10.8984 769.203 11.1693 769.109 11.4766C769.016 11.7839 768.969 12.112 768.969 12.4609ZM772.672 5.09375L773.82 5.17969C773.82 5.5599 773.745 5.90104 773.594 6.20312C773.443 6.5 773.237 6.73438 772.977 6.90625C772.716 7.07812 772.422 7.16406 772.094 7.16406C771.839 7.16406 771.622 7.1276 771.445 7.05469C771.268 6.98177 771.107 6.89844 770.961 6.80469C770.815 6.71094 770.664 6.63021 770.508 6.5625C770.357 6.48958 770.177 6.45312 769.969 6.45312C769.771 6.45312 769.602 6.52604 769.461 6.67188C769.326 6.81771 769.258 7.01302 769.258 7.25781L768.102 7.19531C768.102 6.82031 768.177 6.48177 768.328 6.17969C768.479 5.8776 768.685 5.63802 768.945 5.46094C769.206 5.28385 769.5 5.19531 769.828 5.19531C770.042 5.19531 770.234 5.23177 770.406 5.30469C770.583 5.3724 770.75 5.45312 770.906 5.54688C771.068 5.64062 771.232 5.72396 771.398 5.79688C771.565 5.86979 771.75 5.90625 771.953 5.90625C772.151 5.90625 772.32 5.83073 772.461 5.67969C772.602 5.52865 772.672 5.33333 772.672 5.09375ZM781.109 15.3047V11.2734C781.109 10.9714 781.055 10.7109 780.945 10.4922C780.836 10.2734 780.669 10.1042 780.445 9.98438C780.227 9.86458 779.951 9.80469 779.617 9.80469C779.31 9.80469 779.044 9.85677 778.82 9.96094C778.596 10.0651 778.422 10.2057 778.297 10.3828C778.172 10.5599 778.109 10.7604 778.109 10.9844H776.234C776.234 10.651 776.315 10.3281 776.477 10.0156C776.638 9.70312 776.872 9.42448 777.18 9.17969C777.487 8.9349 777.854 8.74219 778.281 8.60156C778.708 8.46094 779.188 8.39062 779.719 8.39062C780.354 8.39062 780.917 8.4974 781.406 8.71094C781.901 8.92448 782.289 9.2474 782.57 9.67969C782.857 10.1068 783 10.6432 783 11.2891V15.0469C783 15.4323 783.026 15.7786 783.078 16.0859C783.135 16.388 783.216 16.651 783.32 16.875V17H781.391C781.302 16.7969 781.232 16.5391 781.18 16.2266C781.133 15.9089 781.109 15.6016 781.109 15.3047ZM781.383 11.8594L781.398 13.0234H780.047C779.698 13.0234 779.391 13.0573 779.125 13.125C778.859 13.1875 778.638 13.2812 778.461 13.4062C778.284 13.5312 778.151 13.6823 778.062 13.8594C777.974 14.0365 777.93 14.237 777.93 14.4609C777.93 14.6849 777.982 14.8906 778.086 15.0781C778.19 15.2604 778.341 15.4036 778.539 15.5078C778.742 15.612 778.987 15.6641 779.273 15.6641C779.659 15.6641 779.995 15.5859 780.281 15.4297C780.573 15.2682 780.802 15.0729 780.969 14.8438C781.135 14.6094 781.224 14.388 781.234 14.1797L781.844 15.0156C781.781 15.2292 781.674 15.4583 781.523 15.7031C781.372 15.9479 781.174 16.1823 780.93 16.4062C780.69 16.625 780.401 16.8047 780.062 16.9453C779.729 17.0859 779.344 17.1562 778.906 17.1562C778.354 17.1562 777.862 17.0469 777.43 16.8281C776.997 16.6042 776.659 16.3047 776.414 15.9297C776.169 15.5495 776.047 15.1198 776.047 14.6406C776.047 14.1927 776.13 13.7969 776.297 13.4531C776.469 13.1042 776.719 12.8125 777.047 12.5781C777.38 12.3438 777.786 12.1667 778.266 12.0469C778.745 11.9219 779.292 11.8594 779.906 11.8594H781.383ZM790.125 15.25V5H792.016V17H790.305L790.125 15.25ZM784.625 12.8672V12.7031C784.625 12.0625 784.701 11.4792 784.852 10.9531C785.003 10.4219 785.221 9.96615 785.508 9.58594C785.794 9.20052 786.143 8.90625 786.555 8.70312C786.966 8.49479 787.43 8.39062 787.945 8.39062C788.456 8.39062 788.904 8.48958 789.289 8.6875C789.674 8.88542 790.003 9.16927 790.273 9.53906C790.544 9.90365 790.76 10.3411 790.922 10.8516C791.083 11.3568 791.198 11.9193 791.266 12.5391V13.0625C791.198 13.6667 791.083 14.2188 790.922 14.7188C790.76 15.2188 790.544 15.651 790.273 16.0156C790.003 16.3802 789.672 16.6615 789.281 16.8594C788.896 17.0573 788.445 17.1562 787.93 17.1562C787.419 17.1562 786.958 17.0495 786.547 16.8359C786.141 16.6224 785.794 16.3229 785.508 15.9375C785.221 15.5521 785.003 15.099 784.852 14.5781C784.701 14.0521 784.625 13.4818 784.625 12.8672ZM786.508 12.7031V12.8672C786.508 13.2526 786.542 13.612 786.609 13.9453C786.682 14.2786 786.794 14.5729 786.945 14.8281C787.096 15.0781 787.292 15.276 787.531 15.4219C787.776 15.5625 788.068 15.6328 788.406 15.6328C788.833 15.6328 789.185 15.5391 789.461 15.3516C789.737 15.1641 789.953 14.9115 790.109 14.5938C790.271 14.2708 790.38 13.9115 790.438 13.5156V12.1016C790.406 11.7943 790.341 11.5078 790.242 11.2422C790.148 10.9766 790.021 10.7448 789.859 10.5469C789.698 10.3438 789.497 10.1875 789.258 10.0781C789.023 9.96354 788.745 9.90625 788.422 9.90625C788.078 9.90625 787.786 9.97917 787.547 10.125C787.307 10.2708 787.109 10.4714 786.953 10.7266C786.802 10.9818 786.69 11.2786 786.617 11.6172C786.544 11.9557 786.508 12.3177 786.508 12.7031ZM796 8.54688V17H794.109V8.54688H796ZM793.984 6.32812C793.984 6.04167 794.078 5.80469 794.266 5.61719C794.458 5.42448 794.724 5.32812 795.062 5.32812C795.396 5.32812 795.659 5.42448 795.852 5.61719C796.044 5.80469 796.141 6.04167 796.141 6.32812C796.141 6.60938 796.044 6.84375 795.852 7.03125C795.659 7.21875 795.396 7.3125 795.062 7.3125C794.724 7.3125 794.458 7.21875 794.266 7.03125C794.078 6.84375 793.984 6.60938 793.984 6.32812ZM799.953 10.1562V17H798.07V8.54688H799.867L799.953 10.1562ZM802.539 8.49219L802.523 10.2422C802.409 10.2214 802.284 10.2057 802.148 10.1953C802.018 10.1849 801.888 10.1797 801.758 10.1797C801.435 10.1797 801.151 10.2266 800.906 10.3203C800.661 10.4089 800.456 10.5391 800.289 10.7109C800.128 10.8776 800.003 11.0807 799.914 11.3203C799.826 11.5599 799.773 11.8281 799.758 12.125L799.328 12.1562C799.328 11.625 799.38 11.1328 799.484 10.6797C799.589 10.2266 799.745 9.82812 799.953 9.48438C800.167 9.14062 800.432 8.8724 800.75 8.67969C801.073 8.48698 801.445 8.39062 801.867 8.39062C801.982 8.39062 802.104 8.40104 802.234 8.42188C802.37 8.44271 802.471 8.46615 802.539 8.49219Z" fill="#A82548"/>
<path d="M819 19C821.209 19 823 17.2091 823 15C823 12.7909 821.209 11 819 11C816.791 11 815 12.7909 815 15C815 17.2091 816.791 19 819 19Z" stroke="#A82548" stroke-width="1.5" stroke-miterlimit="10" stroke-linecap="round" stroke-linejoin="round"/>
<path d="M817.44 15L818.09 15.65C818.28 15.84 818.59 15.85 818.78 15.66L820.56 14.02" stroke="#A82548" stroke-width="1.5" stroke-linecap="round" stroke-linejoin="round"/>
<path d="M816 22H822C826.02 22 826.74 20.39 826.95 18.43L827.7 12.43C827.97 9.99 827.27 8 823 8H815C810.73 8 810.03 9.99 810.3 12.43L811.05 18.43C811.26 20.39 811.98 22 816 22Z" stroke="#A82548" stroke-width="1.5" stroke-miterlimit="10" stroke-linecap="round" stroke-linejoin="round"/>
<path d="M814.5 7.67001V6.70001C814.5 4.45001 816.31 2.24001 818.56 2.03001C821.24 1.77001 823.5 3.88001 823.5 6.51001V7.89001" stroke="#A82548" stroke-width="1.5" stroke-miterlimit="10" stroke-linecap="round" stroke-linejoin="round"/>
</svg>
