<svg width="32" height="32" viewBox="0 0 32 32" fill="none" xmlns="http://www.w3.org/2000/svg">
<rect width="32" height="32" rx="16" fill="#FF6F87"/>
<path d="M22.75 11.4851C20.2525 11.2376 17.74 11.1101 15.235 11.1101C13.75 11.1101 12.265 11.1851 10.78 11.3351L9.25 11.4851" stroke="#FAFAFA" stroke-width="1.5" stroke-linecap="round" stroke-linejoin="round"/>
<path d="M13.375 10.7275L13.54 9.745C13.66 9.0325 13.75 8.5 15.0175 8.5H16.9825C18.25 8.5 18.3475 9.0625 18.46 9.7525L18.625 10.7275" stroke="#FAFAFA" stroke-width="1.5" stroke-linecap="round" stroke-linejoin="round"/>
<path d="M21.1373 13.855L20.6498 21.4075C20.5673 22.585 20.4998 23.5 18.4073 23.5H13.5923C11.4998 23.5 11.4323 22.585 11.3498 21.4075L10.8623 13.855" stroke="#FAFAFA" stroke-width="1.5" stroke-linecap="round" stroke-linejoin="round"/>
<path d="M14.7476 19.375H17.2451" stroke="#FAFAFA" stroke-width="1.5" stroke-linecap="round" stroke-linejoin="round"/>
<path d="M14.125 16.375H17.875" stroke="#FAFAFA" stroke-width="1.5" stroke-linecap="round" stroke-linejoin="round"/>
</svg>
