<svg width="32" height="32" viewBox="0 0 32 32" fill="none" xmlns="http://www.w3.org/2000/svg">
<rect width="32" height="32" rx="16" fill="#5FB4FC"/>
<path d="M16 18.75C15.3195 18.75 14.7552 18.1833 14.7552 17.5V17.1501C14.7552 15.2167 16.1659 14.2667 16.6971 13.9C17.3112 13.4834 17.5103 13.2001 17.5103 12.7667C17.5103 11.9334 16.8299 11.25 16 11.25C15.1701 11.25 14.4897 11.9334 14.4897 12.7667C14.4897 13.4501 13.9253 14.0167 13.2448 14.0167C12.5643 14.0167 12 13.4501 12 12.7667C12 10.5501 13.7925 8.75 16 8.75C18.2075 8.75 20 10.5501 20 12.7667C20 14.6667 18.6059 15.6167 18.0913 15.9667C17.444 16.4 17.2448 16.6834 17.2448 17.1501V17.5C17.2448 18.2 16.6805 18.75 16 18.75Z" fill="#FAFAFA"/>
<path d="M16 23.25C15.16 23.25 14.5 22.57 14.5 21.75C14.5 20.93 15.18 20.25 16 20.25C16.82 20.25 17.5 20.93 17.5 21.75C17.5 22.57 16.84 23.25 16 23.25Z" fill="#FAFAFA"/>
</svg>
