<svg width="32" height="32" viewBox="0 0 32 32" fill="none" xmlns="http://www.w3.org/2000/svg">
<rect width="32" height="32" rx="16" fill="#FFD984"/>
<path d="M9 18.75C7.48 18.75 6.25 17.52 6.25 16C6.25 14.48 7.48 13.25 9 13.25C10.52 13.25 11.75 14.48 11.75 16C11.75 17.52 10.52 18.75 9 18.75ZM9 14.75C8.31 14.75 7.75 15.31 7.75 16C7.75 16.69 8.31 17.25 9 17.25C9.69 17.25 10.25 16.69 10.25 16C10.25 15.31 9.69 14.75 9 14.75Z" fill="#FAFAFA"/>
<path d="M23 18.75C21.48 18.75 20.25 17.52 20.25 16C20.25 14.48 21.48 13.25 23 13.25C24.52 13.25 25.75 14.48 25.75 16C25.75 17.52 24.52 18.75 23 18.75ZM23 14.75C22.31 14.75 21.75 15.31 21.75 16C21.75 16.69 22.31 17.25 23 17.25C23.69 17.25 24.25 16.69 24.25 16C24.25 15.31 23.69 14.75 23 14.75Z" fill="#FAFAFA"/>
<path d="M16 18.75C14.48 18.75 13.25 17.52 13.25 16C13.25 14.48 14.48 13.25 16 13.25C17.52 13.25 18.75 14.48 18.75 16C18.75 17.52 17.52 18.75 16 18.75ZM16 14.75C15.31 14.75 14.75 15.31 14.75 16C14.75 16.69 15.31 17.25 16 17.25C16.69 17.25 17.25 16.69 17.25 16C17.25 15.31 16.69 14.75 16 14.75Z" fill="#FAFAFA"/>
</svg>
