<svg width="32" height="32" viewBox="0 0 32 32" fill="none" xmlns="http://www.w3.org/2000/svg">
<rect x="0.5" y="0.5" width="31" height="31" rx="15.5" fill="#FAFAFA"/>
<rect x="0.5" y="0.5" width="31" height="31" rx="15.5" stroke="#FF6F87"/>
<path d="M22.75 11.4851C20.2525 11.2376 17.74 11.1101 15.235 11.1101C13.75 11.1101 12.265 11.1851 10.78 11.3351L9.25 11.4851" stroke="#FF6F87" stroke-width="1.5" stroke-linecap="round" stroke-linejoin="round"/>
<path d="M13.375 10.7275L13.54 9.745C13.66 9.0325 13.75 8.5 15.0175 8.5H16.9825C18.25 8.5 18.3475 9.0625 18.46 9.7525L18.625 10.7275" stroke="#FF6F87" stroke-width="1.5" stroke-linecap="round" stroke-linejoin="round"/>
<path d="M21.1375 13.855L20.65 21.4075C20.5675 22.585 20.5 23.5 18.4075 23.5H13.5925C11.5 23.5 11.4325 22.585 11.35 21.4075L10.8625 13.855" stroke="#FF6F87" stroke-width="1.5" stroke-linecap="round" stroke-linejoin="round"/>
<path d="M14.7476 19.375H17.2451" stroke="#FF6F87" stroke-width="1.5" stroke-linecap="round" stroke-linejoin="round"/>
<path d="M14.125 16.375H17.875" stroke="#FF6F87" stroke-width="1.5" stroke-linecap="round" stroke-linejoin="round"/>
</svg>
