<svg width="38" height="38" viewBox="0 0 38 38" fill="none" xmlns="http://www.w3.org/2000/svg">
<rect width="38" height="38" rx="19" fill="#E68650"/>
<path d="M28 29H10C9.59 29 9.25 28.66 9.25 28.25C9.25 27.84 9.59 27.5 10 27.5H28C28.41 27.5 28.75 27.84 28.75 28.25C28.75 28.66 28.41 29 28 29Z" fill="#FAFAFA"/>
<path d="M26.0201 10.48C24.0801 8.54004 22.1801 8.49004 20.1901 10.48L18.9801 11.69C18.8801 11.79 18.8401 11.95 18.8801 12.09C19.6401 14.74 21.7601 16.86 24.4101 17.62C24.4501 17.63 24.4901 17.64 24.5301 17.64C24.6401 17.64 24.7401 17.6 24.8201 17.52L26.0201 16.31C27.0101 15.33 27.4901 14.38 27.4901 13.42C27.5001 12.43 27.0201 11.47 26.0201 10.48Z" fill="#FAFAFA"/>
<path d="M22.6098 18.53C22.3198 18.39 22.0398 18.25 21.7698 18.09C21.5498 17.96 21.3398 17.82 21.1298 17.67C20.9598 17.56 20.7598 17.4 20.5698 17.24C20.5498 17.23 20.4798 17.17 20.3998 17.09C20.0698 16.81 19.6998 16.45 19.3698 16.05C19.3398 16.03 19.2898 15.96 19.2198 15.87C19.1198 15.75 18.9498 15.55 18.7998 15.32C18.6798 15.17 18.5398 14.95 18.4098 14.73C18.2498 14.46 18.1098 14.19 17.9698 13.91C17.9486 13.8647 17.9281 13.8195 17.9083 13.7746C17.7607 13.4413 17.3261 13.3438 17.0683 13.6016L11.3398 19.33C11.2098 19.46 11.0898 19.71 11.0598 19.88L10.5198 23.71C10.4198 24.39 10.6098 25.03 11.0298 25.46C11.3898 25.81 11.8898 26 12.4298 26C12.5498 26 12.6698 25.99 12.7898 25.97L16.6298 25.43C16.8098 25.4 17.0598 25.28 17.1798 25.15L22.9011 19.4287C23.1607 19.1692 23.0628 18.7237 22.7252 18.5797C22.6872 18.5634 22.6488 18.5469 22.6098 18.53Z" fill="#FAFAFA"/>
</svg>
