<svg width="25" height="24" viewBox="0 0 25 24" fill="none" xmlns="http://www.w3.org/2000/svg">
<path d="M8.6665 5.75C8.2565 5.75 7.9165 5.41 7.9165 5V2C7.9165 1.59 8.2565 1.25 8.6665 1.25C9.0765 1.25 9.4165 1.59 9.4165 2V5C9.4165 5.41 9.0765 5.75 8.6665 5.75Z" fill="#A82548"/>
<path d="M16.6665 5.75C16.2565 5.75 15.9165 5.41 15.9165 5V2C15.9165 1.59 16.2565 1.25 16.6665 1.25C17.0765 1.25 17.4165 1.59 17.4165 2V5C17.4165 5.41 17.0765 5.75 16.6665 5.75Z" fill="#A82548"/>
<path d="M9.1665 14.5001C9.0365 14.5001 8.9065 14.4801 8.7865 14.4201C8.6665 14.3701 8.5565 14.3001 8.4565 14.2101C8.2765 14.0201 8.1665 13.7601 8.1665 13.5001C8.1665 13.3701 8.19651 13.2401 8.24651 13.1201C8.29651 13.0001 8.3665 12.8901 8.4565 12.7901C8.5565 12.7001 8.6665 12.6301 8.7865 12.5801C9.1465 12.4301 9.59651 12.5101 9.87651 12.7901C9.96651 12.8901 10.0365 13.0001 10.0865 13.1201C10.1365 13.2401 10.1665 13.3701 10.1665 13.5001C10.1665 13.7601 10.0565 14.0201 9.87651 14.2101C9.68651 14.3901 9.4265 14.5001 9.1665 14.5001Z" fill="#A82548"/>
<path d="M12.6665 14.5C12.4065 14.5 12.1465 14.39 11.9565 14.21C11.8665 14.11 11.7965 14 11.7465 13.88C11.6965 13.76 11.6665 13.63 11.6665 13.5C11.6665 13.24 11.7765 12.98 11.9565 12.79C12.2365 12.51 12.6765 12.42 13.0465 12.58C13.1665 12.63 13.2765 12.7 13.3765 12.79C13.5565 12.98 13.6665 13.24 13.6665 13.5C13.6665 13.63 13.6465 13.76 13.5865 13.88C13.5365 14 13.4665 14.11 13.3765 14.21C13.2765 14.3 13.1665 14.37 13.0465 14.42C12.9265 14.48 12.7965 14.5 12.6665 14.5Z" fill="#A82548"/>
<path d="M9.1665 18C9.0365 18 8.9065 17.97 8.7865 17.92C8.6665 17.87 8.5565 17.8 8.4565 17.71C8.2765 17.52 8.1665 17.27 8.1665 17C8.1665 16.87 8.19651 16.74 8.24651 16.62C8.29651 16.49 8.3665 16.39 8.4565 16.29C8.5565 16.2 8.6665 16.13 8.7865 16.08C9.1465 15.92 9.59651 16.01 9.87651 16.29C9.96651 16.39 10.0365 16.49 10.0865 16.62C10.1365 16.74 10.1665 16.87 10.1665 17C10.1665 17.27 10.0565 17.52 9.87651 17.71C9.68651 17.89 9.4265 18 9.1665 18Z" fill="#A82548"/>
<path d="M21.1665 9.83997H4.1665C3.7565 9.83997 3.4165 9.49997 3.4165 9.08997C3.4165 8.67997 3.7565 8.33997 4.1665 8.33997H21.1665C21.5765 8.33997 21.9165 8.67997 21.9165 9.08997C21.9165 9.49997 21.5765 9.83997 21.1665 9.83997Z" fill="#A82548"/>
<path d="M18.6665 23.75C16.0465 23.75 13.9165 21.62 13.9165 19C13.9165 16.38 16.0465 14.25 18.6665 14.25C21.2865 14.25 23.4165 16.38 23.4165 19C23.4165 21.62 21.2865 23.75 18.6665 23.75ZM18.6665 15.75C16.8765 15.75 15.4165 17.21 15.4165 19C15.4165 20.79 16.8765 22.25 18.6665 22.25C20.4565 22.25 21.9165 20.79 21.9165 19C21.9165 17.21 20.4565 15.75 18.6665 15.75Z" fill="#A82548"/>
<path d="M20.1565 19.7999H17.1665C16.7565 19.7999 16.4165 19.4599 16.4165 19.0499C16.4165 18.6399 16.7565 18.2999 17.1665 18.2999H20.1565C20.5665 18.2999 20.9065 18.6399 20.9065 19.0499C20.9065 19.4599 20.5765 19.7999 20.1565 19.7999Z" fill="#A82548"/>
<path d="M18.6665 21.33C18.2565 21.33 17.9165 20.99 17.9165 20.58V17.59C17.9165 17.18 18.2565 16.84 18.6665 16.84C19.0765 16.84 19.4165 17.18 19.4165 17.59V20.58C19.4165 20.99 19.0765 21.33 18.6665 21.33Z" fill="#A82548"/>
<path d="M16.0365 22.75H8.6665C5.0165 22.75 2.9165 20.65 2.9165 17V8.5C2.9165 4.85 5.0165 2.75 8.6665 2.75H16.6665C20.3165 2.75 22.4165 4.85 22.4165 8.5V16.36C22.4165 16.67 22.2265 16.95 21.9265 17.06C21.6365 17.17 21.3065 17.09 21.0965 16.85C20.4765 16.15 19.5865 15.75 18.6565 15.75C16.8665 15.75 15.4065 17.21 15.4065 19C15.4065 19.59 15.5665 20.17 15.8765 20.67C16.0465 20.97 16.2665 21.22 16.5065 21.43C16.7465 21.63 16.8365 21.96 16.7265 22.26C16.6365 22.55 16.3565 22.75 16.0365 22.75ZM8.6665 4.25C5.8065 4.25 4.4165 5.64 4.4165 8.5V17C4.4165 19.86 5.8065 21.25 8.6665 21.25H14.4865C14.1165 20.57 13.9165 19.8 13.9165 19C13.9165 16.38 16.0465 14.25 18.6665 14.25C19.4565 14.25 20.2365 14.45 20.9165 14.82V8.5C20.9165 5.64 19.5265 4.25 16.6665 4.25H8.6665Z" fill="#A82548"/>
</svg>
