<svg width="18" height="18" viewBox="0 0 18 18" fill="none" xmlns="http://www.w3.org/2000/svg">
<path d="M4.15499 14.64C3.69749 14.64 3.26999 14.4825 2.96249 14.19C2.57249 13.8225 2.38499 13.2675 2.45249 12.6675L2.72999 10.2375C2.78249 9.78004 3.05999 9.17254 3.38249 8.84254L9.53999 2.32504C11.0775 0.697537 12.6825 0.652537 14.31 2.19004C15.9375 3.72754 15.9825 5.33254 14.445 6.96004L8.28749 13.4775C7.97249 13.815 7.38749 14.13 6.92999 14.205L4.51499 14.6175C4.38749 14.625 4.27499 14.64 4.15499 14.64ZM11.9475 2.18254C11.37 2.18254 10.8675 2.54254 10.3575 3.08254L4.19999 9.60754C4.04999 9.76504 3.87749 10.14 3.84749 10.3575L3.56999 12.7875C3.53999 13.035 3.59999 13.2375 3.73499 13.365C3.86999 13.4925 4.07249 13.5375 4.31999 13.5L6.73499 13.0875C6.95249 13.05 7.31249 12.855 7.46249 12.6975L13.62 6.18004C14.55 5.19004 14.8875 4.27504 13.53 3.00004C12.93 2.42254 12.4125 2.18254 11.9475 2.18254Z" fill="#0075D9"/>
<path d="M13.0048 8.21251C12.9898 8.21251 12.9673 8.21251 12.9523 8.21251C10.6123 7.98001 8.72984 6.20251 8.36984 3.87751C8.32484 3.57001 8.53484 3.28501 8.84234 3.23251C9.14984 3.18751 9.43484 3.39751 9.48734 3.70501C9.77234 5.52001 11.2423 6.91501 13.0723 7.09501C13.3798 7.12501 13.6048 7.40251 13.5748 7.71001C13.5373 7.99501 13.2898 8.21251 13.0048 8.21251Z" fill="#0075D9"/>
<path d="M15.75 17.0625H2.25C1.9425 17.0625 1.6875 16.8075 1.6875 16.5C1.6875 16.1925 1.9425 15.9375 2.25 15.9375H15.75C16.0575 15.9375 16.3125 16.1925 16.3125 16.5C16.3125 16.8075 16.0575 17.0625 15.75 17.0625Z" fill="#0075D9"/>
</svg>
