<svg width="256" height="128" viewBox="0 0 256 128" fill="none" xmlns="http://www.w3.org/2000/svg">
<rect x="0.5" y="0.5" width="255" height="127" rx="11.5" stroke="#FDE4AA"/>
<path d="M124 62.3333C121.973 62.3333 120.333 60.6933 120.333 58.6667C120.333 56.64 121.973 55 124 55C126.026 55 127.666 56.64 127.666 58.6667C127.666 60.6933 126.026 62.3333 124 62.3333ZM124 57C123.08 57 122.333 57.7467 122.333 58.6667C122.333 59.5867 123.08 60.3333 124 60.3333C124.92 60.3333 125.666 59.5867 125.666 58.6667C125.666 57.7467 124.92 57 124 57Z" fill="#A82548"/>
<path d="M132 78.3334H124C116.76 78.3334 113.667 75.2401 113.667 68.0001V60.0001C113.667 52.7601 116.76 49.6667 124 49.6667H129.334C129.88 49.6667 130.334 50.1201 130.334 50.6667C130.334 51.2134 129.88 51.6667 129.334 51.6667H124C117.854 51.6667 115.667 53.8534 115.667 60.0001V68.0001C115.667 74.1467 117.854 76.3334 124 76.3334H132C138.147 76.3334 140.334 74.1467 140.334 68.0001V61.3334C140.334 60.7867 140.787 60.3334 141.334 60.3334C141.88 60.3334 142.334 60.7867 142.334 61.3334V68.0001C142.334 75.2401 139.24 78.3334 132 78.3334Z" fill="#A82548"/>
<path d="M140.333 55.6667H133C132.453 55.6667 132 55.2134 132 54.6667C132 54.1201 132.453 53.6667 133 53.6667H140.333C140.88 53.6667 141.333 54.1201 141.333 54.6667C141.333 55.2134 140.88 55.6667 140.333 55.6667Z" fill="#A82548"/>
<path d="M136.667 59.3333C136.12 59.3333 135.667 58.88 135.667 58.3333V51C135.667 50.4533 136.12 50 136.667 50C137.214 50 137.667 50.4533 137.667 51V58.3333C137.667 58.88 137.214 59.3333 136.667 59.3333Z" fill="#A82548"/>
<path d="M115.56 74.2666C115.24 74.2666 114.92 74.1066 114.733 73.8266C114.427 73.3733 114.547 72.7466 115 72.4399L121.573 68.0266C123.013 67.0666 125 67.1732 126.307 68.2799L126.747 68.6666C127.413 69.2399 128.547 69.2399 129.2 68.6666L134.747 63.9066C136.173 62.6932 138.387 62.6932 139.813 63.9066L141.987 65.7732C142.4 66.1332 142.453 66.7599 142.093 67.1866C141.733 67.5999 141.107 67.6532 140.68 67.2932L138.507 65.4266C137.84 64.8532 136.707 64.8532 136.053 65.4266L130.507 70.1866C129.093 71.3999 126.867 71.3999 125.44 70.1866L125 69.7999C124.387 69.2799 123.373 69.2266 122.693 69.6932L116.133 74.1066C115.947 74.2132 115.747 74.2666 115.56 74.2666Z" fill="#A82548"/>
</svg>
