<svg width="24" height="24" viewBox="0 0 24 24" fill="none" xmlns="http://www.w3.org/2000/svg">
<path d="M11.9999 14.1699C9.86988 14.1699 8.12988 12.4399 8.12988 10.2999C8.12988 8.15994 9.86988 6.43994 11.9999 6.43994C14.1299 6.43994 15.8699 8.16994 15.8699 10.3099C15.8699 12.4499 14.1299 14.1699 11.9999 14.1699ZM11.9999 7.93994C10.6999 7.93994 9.62988 8.99994 9.62988 10.3099C9.62988 11.6199 10.6899 12.6799 11.9999 12.6799C13.3099 12.6799 14.3699 11.6199 14.3699 10.3099C14.3699 8.99994 13.2999 7.93994 11.9999 7.93994Z" fill="#A82548"/>
<path d="M12.0002 22.76C10.5202 22.76 9.03018 22.2 7.87018 21.09C4.92018 18.25 1.66018 13.72 2.89018 8.33C4.00018 3.44 8.27018 1.25 12.0002 1.25C12.0002 1.25 12.0002 1.25 12.0102 1.25C15.7402 1.25 20.0102 3.44 21.1202 8.34C22.3402 13.73 19.0802 18.25 16.1302 21.09C14.9702 22.2 13.4802 22.76 12.0002 22.76ZM12.0002 2.75C9.09018 2.75 5.35018 4.3 4.36018 8.66C3.28018 13.37 6.24018 17.43 8.92018 20C10.6502 21.67 13.3602 21.67 15.0902 20C17.7602 17.43 20.7202 13.37 19.6602 8.66C18.6602 4.3 14.9102 2.75 12.0002 2.75Z" fill="#A82548"/>
</svg>
