<svg width="25" height="24" viewBox="0 0 25 24" fill="none" xmlns="http://www.w3.org/2000/svg">
<path d="M12.4999 14.1699C10.3699 14.1699 8.62988 12.4399 8.62988 10.2999C8.62988 8.15994 10.3699 6.43994 12.4999 6.43994C14.6299 6.43994 16.3699 8.16994 16.3699 10.3099C16.3699 12.4499 14.6299 14.1699 12.4999 14.1699ZM12.4999 7.93994C11.1999 7.93994 10.1299 8.99994 10.1299 10.3099C10.1299 11.6199 11.1899 12.6799 12.4999 12.6799C13.8099 12.6799 14.8699 11.6199 14.8699 10.3099C14.8699 8.99994 13.7999 7.93994 12.4999 7.93994Z" fill="#A82548"/>
<path d="M12.4997 22.76C11.0197 22.76 9.52969 22.2 8.36969 21.09C5.41969 18.25 2.15969 13.72 3.38969 8.33C4.49969 3.44 8.76969 1.25 12.4997 1.25C12.4997 1.25 12.4997 1.25 12.5097 1.25C16.2397 1.25 20.5097 3.44 21.6197 8.34C22.8397 13.73 19.5797 18.25 16.6297 21.09C15.4697 22.2 13.9797 22.76 12.4997 22.76ZM12.4997 2.75C9.58969 2.75 5.84969 4.3 4.85969 8.66C3.77969 13.37 6.73969 17.43 9.41969 20C11.1497 21.67 13.8597 21.67 15.5897 20C18.2597 17.43 21.2197 13.37 20.1597 8.66C19.1597 4.3 15.4097 2.75 12.4997 2.75Z" fill="#A82548"/>
</svg>
