<svg width="24" height="24" viewBox="0 0 24 24" fill="none" xmlns="http://www.w3.org/2000/svg">
<path d="M12.0004 22.76C10.9104 22.76 9.83041 22.44 8.98041 21.81L4.68039 18.6C3.54039 17.75 2.65039 15.98 2.65039 14.56V7.13004C2.65039 5.59004 3.78041 3.95004 5.23041 3.41004L10.2204 1.54004C11.2104 1.17004 12.7704 1.17004 13.7604 1.54004L18.7604 3.41004C20.2104 3.95004 21.3404 5.59004 21.3404 7.13004V14.56C21.3404 15.98 20.4504 17.75 19.3104 18.6L15.0104 21.81C14.1704 22.44 13.0904 22.76 12.0004 22.76ZM10.7504 2.94004L5.76041 4.81003C4.90041 5.13003 4.15039 6.21004 4.15039 7.13004V14.56C4.15039 15.51 4.8204 16.84 5.5704 17.4L9.87039 20.61C11.0204 21.47 12.9704 21.47 14.1204 20.61L18.4204 17.4C19.1804 16.83 19.8404 15.5 19.8404 14.56V7.13004C19.8404 6.22004 19.0904 5.14003 18.2304 4.81003L13.2404 2.94004C12.5804 2.69004 11.4204 2.69004 10.7504 2.94004Z" fill="#FAFAFA"/>
<path d="M11.9999 11.67C11.9799 11.67 11.9599 11.67 11.9299 11.67C10.4799 11.63 9.41992 10.52 9.41992 9.17004C9.41992 7.79004 10.5499 6.66003 11.9299 6.66003C13.3099 6.66003 14.4399 7.79004 14.4399 9.17004C14.4299 10.53 13.3699 11.63 12.0199 11.68C12.0099 11.67 12.0099 11.67 11.9999 11.67ZM11.9299 8.16003C11.3699 8.16003 10.9199 8.61004 10.9199 9.17004C10.9199 9.72004 11.3499 10.16 11.8899 10.18C11.8899 10.18 11.9399 10.18 11.9999 10.18C12.5299 10.15 12.9399 9.71004 12.9399 9.17004C12.9499 8.61004 12.4899 8.16003 11.9299 8.16003Z" fill="#FAFAFA"/>
<path d="M11.9998 17.3501C11.1398 17.3501 10.2698 17.1201 9.59982 16.6701C8.92982 16.2301 8.5498 15.5801 8.5498 14.8901C8.5498 14.2001 8.92982 13.5501 9.59982 13.1001C10.9498 12.2001 13.0598 12.2101 14.3998 13.1001C15.0698 13.5401 15.4498 14.1901 15.4498 14.8801C15.4498 15.5701 15.0698 16.2201 14.3998 16.6701C13.7298 17.1201 12.8598 17.3501 11.9998 17.3501ZM10.4298 14.34C10.1798 14.5 10.0398 14.7001 10.0498 14.8801C10.0498 15.0601 10.1898 15.2601 10.4298 15.4201C11.2698 15.9801 12.7298 15.9801 13.5698 15.4201C13.8198 15.2601 13.9598 15.0601 13.9598 14.8801C13.9598 14.7001 13.8198 14.5 13.5798 14.34C12.7398 13.79 11.2698 13.79 10.4298 14.34Z" fill="#FAFAFA"/>
</svg>
