<svg width="24" height="24" viewBox="0 0 24 24" fill="none" xmlns="http://www.w3.org/2000/svg">
<path d="M17.6201 9.62H12.3701C11.9601 9.62 11.6201 9.28 11.6201 8.87C11.6201 8.46 11.9601 8.12 12.3701 8.12H17.6201C18.0301 8.12 18.3701 8.46 18.3701 8.87C18.3701 9.28 18.0401 9.62 17.6201 9.62Z" fill="#FAFAFA"/>
<path d="M7.11957 10.38C6.92957 10.38 6.73957 10.31 6.58957 10.16L5.83957 9.41001C5.54957 9.12001 5.54957 8.64001 5.83957 8.35001C6.12957 8.06001 6.60957 8.06001 6.89957 8.35001L7.11957 8.57001L8.83957 6.85001C9.12957 6.56001 9.60957 6.56001 9.89957 6.85001C10.1896 7.14001 10.1896 7.62001 9.89957 7.91001L7.64957 10.16C7.50957 10.3 7.31957 10.38 7.11957 10.38Z" fill="#FAFAFA"/>
<path d="M17.6201 16.62H12.3701C11.9601 16.62 11.6201 16.28 11.6201 15.87C11.6201 15.46 11.9601 15.12 12.3701 15.12H17.6201C18.0301 15.12 18.3701 15.46 18.3701 15.87C18.3701 16.28 18.0401 16.62 17.6201 16.62Z" fill="#FAFAFA"/>
<path d="M7.11957 17.38C6.92957 17.38 6.73957 17.31 6.58957 17.16L5.83957 16.41C5.54957 16.12 5.54957 15.64 5.83957 15.35C6.12957 15.06 6.60957 15.06 6.89957 15.35L7.11957 15.57L8.83957 13.85C9.12957 13.56 9.60957 13.56 9.89957 13.85C10.1896 14.14 10.1896 14.62 9.89957 14.91L7.64957 17.16C7.50957 17.3 7.31957 17.38 7.11957 17.38Z" fill="#FAFAFA"/>
<path d="M15 22.75H9C3.57 22.75 1.25 20.43 1.25 15V9C1.25 3.57 3.57 1.25 9 1.25H15C20.43 1.25 22.75 3.57 22.75 9V15C22.75 20.43 20.43 22.75 15 22.75ZM9 2.75C4.39 2.75 2.75 4.39 2.75 9V15C2.75 19.61 4.39 21.25 9 21.25H15C19.61 21.25 21.25 19.61 21.25 15V9C21.25 4.39 19.61 2.75 15 2.75H9Z" fill="#FAFAFA"/>
</svg>
