<svg width="18" height="18" viewBox="0 0 18 18" fill="none" xmlns="http://www.w3.org/2000/svg">
<path d="M15.75 4.48511C13.2525 4.23761 10.74 4.11011 8.235 4.11011C6.75 4.11011 5.265 4.18511 3.78 4.33511L2.25 4.48511" stroke="#FF6F87" stroke-width="1.5" stroke-linecap="round" stroke-linejoin="round"/>
<path d="M6.375 3.7275L6.54 2.745C6.66 2.0325 6.75 1.5 8.0175 1.5H9.9825C11.25 1.5 11.3475 2.0625 11.46 2.7525L11.625 3.7275" stroke="#FF6F87" stroke-width="1.5" stroke-linecap="round" stroke-linejoin="round"/>
<path d="M14.1375 6.85498L13.65 14.4075C13.5675 15.585 13.5 16.5 11.4075 16.5H6.59255C4.50005 16.5 4.43255 15.585 4.35005 14.4075L3.86255 6.85498" stroke="#FF6F87" stroke-width="1.5" stroke-linecap="round" stroke-linejoin="round"/>
<path d="M7.74756 12.375H10.2451" stroke="#FF6F87" stroke-width="1.5" stroke-linecap="round" stroke-linejoin="round"/>
<path d="M7.125 9.375H10.875" stroke="#FF6F87" stroke-width="1.5" stroke-linecap="round" stroke-linejoin="round"/>
</svg>
