<svg width="66" height="48" viewBox="0 0 66 48" fill="none" xmlns="http://www.w3.org/2000/svg">
<path d="M42.1598 17.1601V30.84C42.1598 33.08 40.9598 35.1601 39.0198 36.3001L27.1398 43.1601C25.1998 44.2801 22.7998 44.2801 20.8398 43.1601L8.95982 36.3001C7.01982 35.1801 5.81982 33.1 5.81982 30.84V17.1601C5.81982 14.9201 7.01982 12.84 8.95982 11.7L20.8398 4.84C22.7798 3.72 25.1798 3.72 27.1398 4.84L39.0198 11.7C40.9598 12.84 42.1598 14.9001 42.1598 17.1601Z" stroke="white" stroke-width="1.5" stroke-linecap="round" stroke-linejoin="round"/>
<path d="M23.9998 22C26.5735 22 28.6598 19.9136 28.6598 17.34C28.6598 14.7663 26.5735 12.6801 23.9998 12.6801C21.4262 12.6801 19.3398 14.7663 19.3398 17.34C19.3398 19.9136 21.4262 22 23.9998 22Z" stroke="white" stroke-width="1.5" stroke-linecap="round" stroke-linejoin="round"/>
<path d="M32 33.3199C32 29.7199 28.42 26.8 24 26.8C19.58 26.8 16 29.7199 16 33.3199" stroke="white" stroke-width="1.5" stroke-linecap="round" stroke-linejoin="round"/>
<path d="M56.1518 27.4731C56.1082 27.4307 55.9223 27.2707 55.7693 27.1216C54.807 26.2478 53.232 23.9682 52.7512 22.7751C52.674 22.5939 52.5105 22.1357 52.5 21.891C52.5 21.6564 52.554 21.4329 52.6635 21.2195C52.8165 20.9536 53.0572 20.7402 53.3415 20.6233C53.5387 20.5481 54.129 20.4312 54.1395 20.4312C54.7853 20.3143 55.8345 20.25 56.994 20.25C58.0988 20.25 59.1052 20.3143 59.7607 20.41C59.7712 20.4209 60.5048 20.5378 60.756 20.6657C61.215 20.9002 61.5 21.3583 61.5 21.8486V21.891C61.4888 22.2103 61.2037 22.8817 61.1932 22.8817C60.7118 24.0106 59.214 26.2375 58.2188 27.1326C58.2188 27.1326 57.963 27.3847 57.8033 27.4942C57.5738 27.6652 57.2895 27.75 57.0052 27.75C56.688 27.75 56.3925 27.6543 56.1518 27.4731Z" fill="white"/>
</svg>
